<?xml version="1.0" encoding="UTF-8" standalone="no"?>
<svg width="532px" height="55px" viewBox="0 0 532 55" version="1.1" xmlns="http://www.w3.org/2000/svg" xmlns:xlink="http://www.w3.org/1999/xlink" xmlns:sketch="http://www.bohemiancoding.com/sketch/ns">
    <!-- Generator: Sketch 3.1.1 (8761) - http://www.bohemiancoding.com/sketch -->
    <title>refresh36 + C   NSTANTUNE</title>
    <desc>Created with Sketch.</desc>
    <defs></defs>
    <g id="Page-1" stroke="none" stroke-width="1" fill="none" fill-rule="evenodd" sketch:type="MSPage">
        <g id="refresh36-+-C---NSTANTUNE" sketch:type="MSLayerGroup" transform="translate(0.000000, 1.000000)" fill="#FFFFFF">
            <g id="refresh36" transform="translate(49.000000, 0.000000)" sketch:type="MSShapeGroup">
                <g id="Group">
                    <path d="M53.1527143,3.08185714 C52.7108571,2.64 52.1867143,2.41842857 51.5815714,2.41842857 C50.9764286,2.41842857 50.4531429,2.64 50.0104286,3.08185714 L45.4714286,7.58657143 C42.9805714,5.23542857 40.1288571,3.41357143 36.9167143,2.12185714 C33.705,0.830142857 30.3985714,0.184285714 27,0.184285714 C20.5984286,0.184285714 15.012,2.12185714 10.2398571,5.99785714 C5.46771429,9.87342857 2.32542857,14.9301429 0.812142857,21.1688571 L0.812142857,21.4131429 C0.812142857,21.7157143 0.922714286,21.9775714 1.14385714,22.1987143 C1.365,22.4198571 1.62685714,22.5304286 1.92942857,22.5304286 L8.87785714,22.5304286 C9.39,22.5304286 9.73885714,22.2625714 9.92528571,21.7272857 C10.9028571,19.3997143 11.5195714,18.0381429 11.7758571,17.6421429 C13.4052857,14.9884286 15.57,12.9051429 18.2704286,11.3918571 C20.9708571,9.879 23.8804286,9.12214286 26.9995714,9.12214286 C31.6787143,9.12214286 35.7407143,10.7168571 39.186,13.9058571 L34.3667143,18.7242857 C33.9252857,19.1665714 33.7037143,19.6907143 33.7037143,20.2958571 C33.7037143,20.901 33.9252857,21.4247143 34.3667143,21.867 C34.8094286,22.3092857 35.3335714,22.5304286 35.9387143,22.5304286 L51.5815714,22.5304286 C52.1867143,22.5304286 52.7104286,22.3092857 53.1527143,21.867 C53.5945714,21.4247143 53.8157143,20.901 53.8157143,20.2958571 L53.8157143,4.653 C53.8157143,4.04785714 53.5958571,3.52414286 53.1527143,3.08185714 L53.1527143,3.08185714 Z" id="Shape"></path>
                    <path d="M51.8254286,31.4695714 L45.1208571,31.4695714 C44.6091429,31.4695714 44.2598571,31.737 44.0738571,32.2727143 C43.0967143,34.6007143 42.4795714,35.9618571 42.2237143,36.3578571 C40.5938571,39.0107143 38.4291429,41.0948571 35.7291429,42.6077143 C33.0287143,44.121 30.1191429,44.8774286 27,44.8774286 C24.7422857,44.8774286 22.5655714,44.4587143 20.4707143,43.6204286 C18.3758571,42.7821429 16.5017143,41.5945714 14.8491429,40.0581429 L19.6328571,35.2748571 C20.0751429,34.833 20.2962857,34.3084286 20.2962857,33.7037143 C20.2962857,33.0985714 20.0751429,32.5744286 19.6328571,32.1325714 C19.1905714,31.6898571 18.6668571,31.4687143 18.0617143,31.4687143 L2.41885714,31.4687143 C1.81328571,31.4687143 1.28957143,31.6898571 0.847285714,32.1325714 C0.405,32.5744286 0.183857143,33.0985714 0.183857143,33.7037143 L0.183857143,49.3465714 C0.183857143,49.9512857 0.405,50.4758571 0.847285714,50.9177143 C1.29,51.3595714 1.81371429,51.5815714 2.41885714,51.5815714 C3.024,51.5815714 3.54771429,51.3595714 3.99,50.9177143 L8.49428571,46.413 C10.9851429,48.7872857 13.8192857,50.6147143 16.9967143,51.8948571 C20.1741429,53.1754286 23.4621429,53.8152857 26.8607143,53.8152857 C33.2391429,53.8152857 38.8024286,51.8777143 43.551,48.0017143 C48.2995714,44.1261429 51.4187143,39.069 52.9088571,32.8307143 C52.9324286,32.7844286 52.9435714,32.7025714 52.9435714,32.5864286 C52.9435714,32.2838571 52.8325714,32.0224286 52.6114286,31.8008571 C52.3898571,31.5805714 52.128,31.4695714 51.8254286,31.4695714 L51.8254286,31.4695714 Z" id="Shape"></path>
                </g>
            </g>
            <path d="M39.24,12.976 C37.8959933,11.1519909 36.1440108,9.8200042 33.984,8.98 C31.8239892,8.1399958 29.7120103,7.72 27.648,7.72 C25.0079868,7.72 22.6080108,8.1999952 20.448,9.16 C18.2879892,10.1200048 16.4280078,11.4399916 14.868,13.12 C13.3079922,14.8000084 12.1080042,16.7679887 11.268,19.024 C10.4279958,21.2800113 10.008,23.7279868 10.008,26.368 C10.008,29.1520139 10.4159959,31.6959885 11.232,34 C12.0480041,36.3040115 13.2119924,38.2839917 14.724,39.94 C16.2360076,41.5960083 18.0479894,42.8799954 20.16,43.792 C22.2720106,44.7040046 24.6479868,45.16 27.288,45.16 C30.0240137,45.16 32.4479894,44.6200054 34.56,43.54 C36.6720106,42.4599946 38.3759935,41.0320089 39.672,39.256 L46.944,44.368 C44.6879887,47.2000142 41.9280163,49.3959922 38.664,50.956 C35.3999837,52.5160078 31.5840218,53.296 27.216,53.296 C23.2319801,53.296 19.5720167,52.6360066 16.236,51.316 C12.8999833,49.9959934 10.032012,48.1480119 7.632,45.772 C5.231988,43.3959881 3.36000672,40.5640164 2.016,37.276 C0.67199328,33.9879836 0,30.3520199 0,26.368 C0,22.2879796 0.70799292,18.6040164 2.124,15.316 C3.54000708,12.0279836 5.48398764,9.23201152 7.956,6.928 C10.4280124,4.62398848 13.3439832,2.84800624 16.704,1.6 C20.0640168,0.35199376 23.7119803,-0.272 27.648,-0.272 C29.2800082,-0.272 30.9839911,-0.11600156 32.76,0.196 C34.5360089,0.50800156 36.2399918,0.98799676 37.872,1.636 C39.5040082,2.28400324 41.0399928,3.0879952 42.48,4.048 C43.9200072,5.0080048 45.143995,6.15999328 46.152,7.504 L39.24,12.976 Z M108.56,1.024 L120.584,1.024 L144.272,39.184 L144.416,39.184 L144.416,1.024 L153.488,1.024 L153.488,52 L141.968,52 L117.776,12.616 L117.632,12.616 L117.632,52 L108.56,52 L108.56,1.024 Z M190.712,11.68 C189.751995,10.4319938 188.396009,9.3880042 186.644,8.548 C184.891991,7.7079958 183.128009,7.288 181.352,7.288 C180.295995,7.288 179.240005,7.41999868 178.184,7.684 C177.127995,7.94800132 176.168004,8.35599724 175.304,8.908 C174.439996,9.46000276 173.732003,10.1799956 173.18,11.068 C172.627997,11.9560044 172.352,13.0239938 172.352,14.272 C172.352,15.4240058 172.591998,16.4079959 173.072,17.224 C173.552002,18.0400041 174.211996,18.7359971 175.052,19.312 C175.892004,19.8880029 176.911994,20.3919978 178.112,20.824 C179.312006,21.2560022 180.631993,21.6879978 182.072,22.12 C183.704008,22.6480026 185.395991,23.2479966 187.148,23.92 C188.900009,24.5920034 190.507993,25.4799945 191.972,26.584 C193.436007,27.6880055 194.635995,29.0799916 195.572,30.76 C196.508005,32.4400084 196.976,34.5279875 196.976,37.024 C196.976,39.7600137 196.472005,42.1479898 195.464,44.188 C194.455995,46.2280102 193.112008,47.9199933 191.432,49.264 C189.751992,50.6080067 187.784011,51.6159966 185.528,52.288 C183.271989,52.9600034 180.896012,53.296 178.4,53.296 C175.087983,53.296 171.848016,52.6840061 168.68,51.46 C165.511984,50.2359939 162.92001,48.424012 160.904,46.024 L167.384,39.976 C168.632006,41.7040086 170.29999,43.071995 172.388,44.08 C174.47601,45.088005 176.52799,45.592 178.544,45.592 C179.600005,45.592 180.679994,45.4600013 181.784,45.196 C182.888006,44.9319987 183.883996,44.4880031 184.772,43.864 C185.660004,43.2399969 186.379997,42.4600047 186.932,41.524 C187.484003,40.5879953 187.76,39.424007 187.76,38.032 C187.76,36.6879933 187.448003,35.5720044 186.824,34.684 C186.199997,33.7959956 185.360005,33.0280032 184.304,32.38 C183.247995,31.7319968 182.000007,31.1680024 180.56,30.688 C179.119993,30.2079976 177.608008,29.7040026 176.024,29.176 C174.487992,28.6959976 172.952008,28.1200034 171.416,27.448 C169.879992,26.7759966 168.500006,25.8880055 167.276,24.784 C166.051994,23.6799945 165.056004,22.324008 164.288,20.716 C163.519996,19.107992 163.136,17.104012 163.136,14.704 C163.136,12.111987 163.675995,9.88000936 164.756,8.008 C165.836005,6.13599064 167.251991,4.58800612 169.004,3.364 C170.756009,2.13999388 172.747989,1.228003 174.98,0.628 C177.212011,0.027997 179.479988,-0.272 181.784,-0.272 C184.376013,-0.272 187.003987,0.18399544 189.668,1.096 C192.332013,2.00800456 194.64799,3.37599088 196.616,5.2 L190.712,11.68 Z M215.192,8.944 L199.568,8.944 L199.568,1.024 L239.888,1.024 L239.888,8.944 L224.264,8.944 L224.264,52 L215.192,52 L215.192,8.944 Z M257.456,1.024 L265.304,1.024 L287.264,52 L276.896,52 L272.144,40.336 L250.04,40.336 L245.432,52 L235.28,52 L257.456,1.024 Z M268.976,32.56 L261.128,11.824 L253.136,32.56 L268.976,32.56 Z M292.304,1.024 L304.328,1.024 L328.016,39.184 L328.16,39.184 L328.16,1.024 L337.232,1.024 L337.232,52 L325.712,52 L301.52,12.616 L301.376,12.616 L301.376,52 L292.304,52 L292.304,1.024 Z M358.76,8.944 L343.136,8.944 L343.136,1.024 L383.456,1.024 L383.456,8.944 L367.832,8.944 L367.832,52 L358.76,52 L358.76,8.944 Z M429.968,33.28 C429.968,36.3520154 429.440005,39.1239876 428.384,41.596 C427.327995,44.0680124 425.888009,46.1679914 424.064,47.896 C422.239991,49.6240086 420.080012,50.9559953 417.584,51.892 C415.087988,52.8280047 412.376015,53.296 409.448,53.296 C406.519985,53.296 403.808012,52.8280047 401.312,51.892 C398.815988,50.9559953 396.644009,49.6240086 394.796,47.896 C392.947991,46.1679914 391.508005,44.0680124 390.476,41.596 C389.443995,39.1239876 388.928,36.3520154 388.928,33.28 L388.928,1.024 L398,1.024 L398,32.92 C398,34.4080074 398.191998,35.8839927 398.576,37.348 C398.960002,38.8120073 399.595996,40.1199942 400.484,41.272 C401.372004,42.4240058 402.547993,43.3599964 404.012,44.08 C405.476007,44.8000036 407.287989,45.16 409.448,45.16 C411.608011,45.16 413.419993,44.8000036 414.884,44.08 C416.348007,43.3599964 417.523996,42.4240058 418.412,41.272 C419.300004,40.1199942 419.935998,38.8120073 420.32,37.348 C420.704002,35.8839927 420.896,34.4080074 420.896,32.92 L420.896,1.024 L429.968,1.024 L429.968,33.28 Z M440.768,1.024 L452.792,1.024 L476.48,39.184 L476.624,39.184 L476.624,1.024 L485.696,1.024 L485.696,52 L474.176,52 L449.984,12.616 L449.84,12.616 L449.84,52 L440.768,52 L440.768,1.024 Z M496.928,1.024 L530.696,1.024 L530.696,8.944 L506,8.944 L506,21.904 L529.4,21.904 L529.4,29.536 L506,29.536 L506,43.936 L531.992,43.936 L531.992,52 L496.928,52 L496.928,1.024 Z" id="C---NSTANTUNE" sketch:type="MSShapeGroup"></path>
        </g>
    </g>
</svg>